# xmcd
#
# Track frame offsets:
#	150
#	18227
#	31700
#	48209
#	65440
#	81042
#	111316
#	125358
#	143487
#
# Disc length: 2002 seconds
#
# Revision: 0
# Processed by: cddbd v1.5.2PL0 Copyright (c) Steve Scherf et al.
# Submitted via: EasyCDDAExtractor 12.0.0.1
#
DISCID=6707d009
DTITLE=Liane Edwards - 1996 - Ghost rider
DYEAR=1996
DGENRE=Country
TTITLE0=Little girl
TTITLE1=Carolina bound
TTITLE2=Midnight train
TTITLE3=Family matters
TTITLE4=blow me away
TTITLE5=Ghost rider
TTITLE6=The fall
TTITLE7=Blooming like a red rose
TTITLE8=Let's go
EXTD=
EXTT0=
EXTT1=
EXTT2=
EXTT3=
EXTT4=
EXTT5=
EXTT6=
EXTT7=
EXTT8=
PLAYORDER=
